<svg xmlns="http://www.w3.org/2000/svg" width="33" height="35" viewBox="0 0 33 35" fill="none">
  <g style="mix-blend-mode:hard-light">
    <g style="mix-blend-mode:plus-lighter">
      <rect width="33" height="35" rx="10" />
    </g>
    <path d="M20.0834 9.90285C19.4819 9.29016 18.7649 8.80272 17.9739 8.46868C17.183 8.13464 16.3336 7.96063 15.475 7.95668C14.6164 7.95274 13.7655 8.11894 12.9715 8.4457C12.1775 8.77245 11.4561 9.25328 10.849 9.86042C10.2418 10.4676 9.761 11.189 9.43424 11.983C9.10749 12.777 8.94128 13.6279 8.94523 14.4865C8.94917 15.3451 9.12319 16.1944 9.45723 16.9854C9.79127 17.7764 10.2787 18.4933 10.8914 19.0948C12.1141 20.2953 13.7615 20.9644 15.475 20.9565C17.1886 20.9487 18.8297 20.2645 20.0414 19.0528C21.253 17.8411 21.9372 16.2 21.9451 14.4865C21.953 12.7729 21.2839 11.1256 20.0834 9.90285ZM9.47739 8.48885C11.0102 6.95641 13.0705 6.06742 15.2371 6.00368C17.4036 5.93994 19.5126 6.70625 21.1329 8.14592C22.7532 9.58559 23.7623 11.5898 23.9538 13.7488C24.1453 15.9078 23.5049 18.0584 22.1634 19.7608L27.5084 25.1059L26.0944 26.5198L20.7494 21.1749C19.0464 22.5114 16.8976 23.1479 14.7415 22.9544C12.5853 22.761 10.5841 21.7523 9.14617 20.134C7.70824 18.5156 6.94189 16.4097 7.00344 14.2457C7.06499 12.0818 7.94981 10.0228 9.47739 8.48885Z" fill="black"/>
  </g>
</svg>